<svg width="165" height="165" viewBox="0 0 165 165" fill="none" xmlns="http://www.w3.org/2000/svg">
<path d="M123.75 75.625C123.75 69.0319 119.075 63.5181 112.881 62.1912C115.356 58.0594 116.875 53.2812 116.875 48.125C116.875 32.9587 104.541 20.625 89.375 20.625C78.9525 20.625 69.9738 26.5169 65.3125 35.09C60.6512 26.5169 51.6725 20.625 41.25 20.625C26.0837 20.625 13.75 32.9587 13.75 48.125C13.75 54.3262 15.895 59.9912 19.3669 64.5975C17.6311 65.8661 16.2183 67.5253 15.2425 69.441C14.2667 71.3567 13.7555 73.4751 13.75 75.625V130.625C13.75 138.208 19.9169 144.375 27.5 144.375H110C117.583 144.375 123.75 138.208 123.75 130.625V112.496L151.25 126.246V78.1206L123.75 91.8706V75.625ZM89.375 34.375C96.9581 34.375 103.125 40.5419 103.125 48.125C103.125 55.7081 96.9581 61.875 89.375 61.875C81.7919 61.875 75.625 55.7081 75.625 48.125C75.625 40.5419 81.7919 34.375 89.375 34.375ZM41.25 34.375C48.8331 34.375 55 40.5419 55 48.125C55 55.7081 48.8331 61.875 41.25 61.875C33.6669 61.875 27.5 55.7081 27.5 48.125C27.5 40.5419 33.6669 34.375 41.25 34.375Z" fill="#EEEEEE"/>
</svg>
